<svg width="24" height="25" viewBox="0 0 24 25" fill="none" xmlns="http://www.w3.org/2000/svg">
<path d="M3.05712 10.4741C2.90038 10.3174 2.77604 10.1313 2.69121 9.92658C2.60638 9.72182 2.56272 9.50235 2.56272 9.28071C2.56272 9.05907 2.60638 8.83961 2.69121 8.63484C2.77604 8.43008 2.90038 8.24404 3.05712 8.08733L9.80712 1.33733C10.1236 1.02083 10.5529 0.843018 11.0005 0.843018C11.4481 0.843018 11.8774 1.02083 12.1939 1.33733C12.5104 1.65384 12.6882 2.08311 12.6882 2.53071C12.6882 2.97831 12.5104 3.40759 12.1939 3.72409L5.44387 10.4741C5.28717 10.6308 5.10112 10.7552 4.89636 10.84C4.6916 10.9248 4.47213 10.9685 4.2505 10.9685C4.02886 10.9685 3.80939 10.9248 3.60463 10.84C3.39987 10.7552 3.21382 10.6308 3.05712 10.4741ZM23.1626 12.3061C23.0059 12.1493 22.8199 12.025 22.6151 11.9402C22.4104 11.8553 22.1909 11.8117 21.9692 11.8117C21.7476 11.8117 21.5281 11.8553 21.3234 11.9402C21.1186 12.025 20.9326 12.1493 20.7759 12.3061L14.0259 19.0561C13.7096 19.3725 13.532 19.8016 13.532 20.2489C13.532 20.6963 13.7096 21.1253 14.0259 21.4418C14.1826 21.5985 14.3686 21.7229 14.5734 21.8077C14.7781 21.8925 14.9976 21.9362 15.2192 21.9362C15.4409 21.9362 15.6604 21.8925 15.8651 21.8077C16.0699 21.7229 16.2559 21.5985 16.4126 21.4418L23.1626 14.6918C23.4789 14.3753 23.6565 13.9463 23.6565 13.4989C23.6565 13.0516 23.4789 12.6225 23.1626 12.3061ZM19.1907 10.3718L14.1282 5.30928C13.97 5.15117 13.7554 5.06235 13.5317 5.06235C13.3081 5.06235 13.0935 5.15117 12.9353 5.30928L7.02907 11.2155C6.87096 11.3738 6.78214 11.5883 6.78214 11.812C6.78214 12.0356 6.87096 12.2502 7.02907 12.4084L8.36325 13.7468L0.525867 21.5884C0.222758 21.9074 0.0562722 22.3323 0.061906 22.7723C0.0675399 23.2123 0.244848 23.6328 0.556025 23.9439C0.867202 24.2551 1.28763 24.4324 1.72766 24.438C2.1677 24.4437 2.59253 24.2772 2.91157 23.9741L10.7532 16.1367L12.0916 17.4751C12.2498 17.6332 12.4643 17.722 12.688 17.722C12.9117 17.722 13.1262 17.6332 13.2844 17.4751L19.1907 11.5689C19.2696 11.4904 19.3322 11.3972 19.375 11.2945C19.4177 11.1917 19.4397 11.0816 19.4397 10.9703C19.4397 10.8591 19.4177 10.7489 19.375 10.6462C19.3322 10.5435 19.2696 10.4502 19.1907 10.3718Z" fill="white"/>
</svg>
